<svg width="567" height="201" viewBox="0 0 567 201" fill="none" xmlns="http://www.w3.org/2000/svg">
<path d="M126.712 148.92C114.424 148.92 104.099 146.616 95.736 142.008C93.8587 140.984 92.92 139.96 92.92 138.936C92.92 138.339 93.176 137.613 93.688 136.76L99.96 125.496C100.557 124.472 101.283 123.96 102.136 123.96C102.819 123.96 103.672 124.216 104.696 124.728C107 125.923 109.987 127.075 113.656 128.184C117.325 129.208 120.525 129.72 123.256 129.72C125.048 129.72 126.285 129.592 126.968 129.336C127.651 128.995 127.992 128.483 127.992 127.8C127.992 127.117 127.352 126.52 126.072 126.008C124.877 125.496 122.829 124.856 119.928 124.088C119.075 123.832 118.221 123.619 117.368 123.448C116.6 123.192 115.832 122.936 115.064 122.68C107.981 120.547 102.904 118.115 99.832 115.384C96.8453 112.568 95.352 108.685 95.352 103.736C95.352 97.2507 98.168 92.3013 103.8 88.888C109.432 85.3893 117.069 83.64 126.712 83.64C132.685 83.64 137.763 84.152 141.944 85.176C146.211 86.1147 150.392 87.6507 154.488 89.784C156.28 90.808 157.176 91.8747 157.176 92.984C157.176 93.6667 156.835 94.5627 156.152 95.672L150.008 105.4C149.325 106.424 148.685 106.936 148.088 106.936C147.832 106.936 147.021 106.637 145.656 106.04C143.693 105.101 141.432 104.333 138.872 103.736C136.312 103.053 133.965 102.712 131.832 102.712C127.224 102.712 124.92 103.48 124.92 105.016C124.92 105.699 125.645 106.296 127.096 106.808C128.632 107.32 131.192 108.003 134.776 108.856C139.469 109.965 142.712 110.819 144.504 111.416C148.344 112.781 151.288 114.189 153.336 115.64C155.384 117.091 156.792 118.797 157.56 120.76C158.413 122.637 158.84 125.112 158.84 128.184C158.84 131.939 157.645 135.395 155.256 138.552C152.952 141.709 149.368 144.227 144.504 146.104C139.725 147.981 133.795 148.92 126.712 148.92ZM200.686 148.92C193.347 148.92 186.777 147.683 180.974 145.208C175.257 142.733 170.777 139.107 167.534 134.328C164.291 129.464 162.67 123.619 162.67 116.792C162.67 106.04 165.785 97.848 172.014 92.216C178.329 86.4987 187.417 83.64 199.278 83.64C210.883 83.64 219.673 86.456 225.646 92.088C231.619 97.6347 234.606 105.229 234.606 114.872C234.606 117.347 234.094 119.181 233.07 120.376C232.046 121.571 230.467 122.168 228.334 122.168H191.47C191.47 124.728 192.707 126.776 195.182 128.312C197.657 129.763 201.07 130.488 205.422 130.488C208.75 130.488 211.438 130.232 213.486 129.72C215.534 129.123 217.753 128.227 220.142 127.032C221.166 126.52 221.977 126.264 222.574 126.264C223.342 126.264 224.067 126.861 224.75 128.056L229.742 137.528C230.254 138.381 230.51 139.149 230.51 139.832C230.51 140.771 229.913 141.581 228.718 142.264C221.465 146.701 212.121 148.92 200.686 148.92ZM207.47 107.832C207.47 103.224 204.782 100.92 199.406 100.92C196.761 100.92 194.755 101.56 193.39 102.84C192.11 104.035 191.47 105.699 191.47 107.832H207.47ZM248.788 147C245.972 147 243.967 146.403 242.772 145.208C241.577 144.013 240.98 142.179 240.98 139.704V89.784C240.98 88.0773 241.279 86.968 241.876 86.456C242.559 85.8587 243.881 85.56 245.844 85.56H261.972C263.081 85.56 263.892 85.688 264.404 85.944C265.001 86.1147 265.385 86.584 265.556 87.352L266.324 90.552C271.529 85.944 277.503 83.64 284.244 83.64C287.572 83.64 290.217 83.896 292.18 84.408C294.143 84.92 295.977 85.816 297.684 87.096C298.623 87.7787 299.092 88.504 299.092 89.272C299.092 89.784 298.964 90.3813 298.708 91.064L293.716 104.632C293.204 105.997 292.521 106.68 291.668 106.68C291.156 106.68 290.559 106.467 289.876 106.04C288.511 105.272 287.188 104.717 285.908 104.376C284.628 104.035 282.964 103.864 280.916 103.864C278.185 103.864 275.967 104.589 274.26 106.04C272.553 107.491 271.7 109.453 271.7 111.928V139.704C271.7 142.179 271.103 144.013 269.908 145.208C268.799 146.403 266.836 147 264.02 147H248.788ZM313.22 81.08C309.892 81.08 307.332 80.2267 305.54 78.52C303.833 76.728 302.98 74.5947 302.98 72.12V68.92C302.98 66.4453 303.833 64.3547 305.54 62.648C307.332 60.856 309.892 59.96 313.22 59.96H324.356C327.684 59.96 330.244 60.856 332.036 62.648C333.828 64.3547 334.724 66.4453 334.724 68.92V72.12C334.724 74.5947 333.828 76.728 332.036 78.52C330.244 80.2267 327.684 81.08 324.356 81.08H313.22ZM311.172 147C308.356 147 306.351 146.403 305.156 145.208C304.047 144.013 303.492 142.179 303.492 139.704V92.856C303.492 90.3813 304.047 88.5467 305.156 87.352C306.351 86.1573 308.356 85.56 311.172 85.56H326.404C329.305 85.56 331.311 86.1573 332.42 87.352C333.615 88.4613 334.212 90.296 334.212 92.856V139.704C334.212 142.179 333.615 144.013 332.42 145.208C331.311 146.403 329.305 147 326.404 147H311.172ZM379.186 148.92C371.847 148.92 365.277 147.683 359.474 145.208C353.757 142.733 349.277 139.107 346.034 134.328C342.791 129.464 341.17 123.619 341.17 116.792C341.17 106.04 344.285 97.848 350.514 92.216C356.829 86.4987 365.917 83.64 377.778 83.64C389.383 83.64 398.173 86.456 404.146 92.088C410.119 97.6347 413.106 105.229 413.106 114.872C413.106 117.347 412.594 119.181 411.57 120.376C410.546 121.571 408.967 122.168 406.834 122.168H369.97C369.97 124.728 371.207 126.776 373.682 128.312C376.157 129.763 379.57 130.488 383.922 130.488C387.25 130.488 389.938 130.232 391.986 129.72C394.034 129.123 396.253 128.227 398.642 127.032C399.666 126.52 400.477 126.264 401.074 126.264C401.842 126.264 402.567 126.861 403.25 128.056L408.242 137.528C408.754 138.381 409.01 139.149 409.01 139.832C409.01 140.771 408.413 141.581 407.218 142.264C399.965 146.701 390.621 148.92 379.186 148.92ZM385.97 107.832C385.97 103.224 383.282 100.92 377.906 100.92C375.261 100.92 373.255 101.56 371.89 102.84C370.61 104.035 369.97 105.699 369.97 107.832H385.97ZM450.712 148.92C438.424 148.92 428.099 146.616 419.736 142.008C417.859 140.984 416.92 139.96 416.92 138.936C416.92 138.339 417.176 137.613 417.688 136.76L423.96 125.496C424.557 124.472 425.283 123.96 426.136 123.96C426.819 123.96 427.672 124.216 428.696 124.728C431 125.923 433.987 127.075 437.656 128.184C441.325 129.208 444.525 129.72 447.256 129.72C449.048 129.72 450.285 129.592 450.968 129.336C451.651 128.995 451.992 128.483 451.992 127.8C451.992 127.117 451.352 126.52 450.072 126.008C448.877 125.496 446.829 124.856 443.928 124.088C443.075 123.832 442.221 123.619 441.368 123.448C440.6 123.192 439.832 122.936 439.064 122.68C431.981 120.547 426.904 118.115 423.832 115.384C420.845 112.568 419.352 108.685 419.352 103.736C419.352 97.2507 422.168 92.3013 427.8 88.888C433.432 85.3893 441.069 83.64 450.712 83.64C456.685 83.64 461.763 84.152 465.944 85.176C470.211 86.1147 474.392 87.6507 478.488 89.784C480.28 90.808 481.176 91.8747 481.176 92.984C481.176 93.6667 480.835 94.5627 480.152 95.672L474.008 105.4C473.325 106.424 472.685 106.936 472.088 106.936C471.832 106.936 471.021 106.637 469.656 106.04C467.693 105.101 465.432 104.333 462.872 103.736C460.312 103.053 457.965 102.712 455.832 102.712C451.224 102.712 448.92 103.48 448.92 105.016C448.92 105.699 449.645 106.296 451.096 106.808C452.632 107.32 455.192 108.003 458.776 108.856C463.469 109.965 466.712 110.819 468.504 111.416C472.344 112.781 475.288 114.189 477.336 115.64C479.384 117.091 480.792 118.797 481.56 120.76C482.413 122.637 482.84 125.112 482.84 128.184C482.84 131.939 481.645 135.395 479.256 138.552C476.952 141.709 473.368 144.227 468.504 146.104C463.725 147.981 457.795 148.92 450.712 148.92Z" fill="#CCB96D"/>
<path d="M494.495 141.231C494.495 98.1765 494 55.0794 494 12" stroke="#4C595F" stroke-width="10" stroke-linecap="round"/>
<path d="M516.99 168C516.99 124.945 516.495 81.8481 516.495 38.7687" stroke="#4C595F" stroke-width="10" stroke-linecap="round"/>
<path d="M539.485 141.38C539.485 98.3257 538.99 55.2286 538.99 12.1491" stroke="#4C595F" stroke-width="10" stroke-linecap="round"/>
<path d="M561.98 168C561.98 124.945 561.485 81.8481 561.485 38.7687" stroke="#4C595F" stroke-width="10" stroke-linecap="round"/>
<path d="M5.49514 141.231C5.49514 98.1765 5 55.0794 5 12" stroke="#4C595F" stroke-width="10" stroke-linecap="round"/>
<path d="M27.9903 168C27.9903 124.945 27.4951 81.8481 27.4951 38.7687" stroke="#4C595F" stroke-width="10" stroke-linecap="round"/>
<path d="M50.4854 141.38C50.4854 98.3257 49.9902 55.2286 49.9902 12.1491" stroke="#4C595F" stroke-width="10" stroke-linecap="round"/>
<path d="M72.9805 168C72.9805 124.945 72.4854 81.8481 72.4854 38.7687" stroke="#4C595F" stroke-width="10" stroke-linecap="round"/>
</svg>
