<svg width="64" height="64" viewBox="0 0 64 64" fill="none" xmlns="http://www.w3.org/2000/svg">
<rect width="64" height="64" rx="32" fill="#C7B66C"/>
<g clip-path="url(#clip0_1_116)">
<path d="M16.3645 44.6568C16.4675 44.3329 16.665 44.0473 16.9316 43.8365C17.1982 43.6258 17.5217 43.4996 17.8606 43.4741C20.5278 43.2684 23.1004 42.3946 25.341 40.9332C32.8044 36.0864 34.8967 26.0774 30.027 18.5787C29.3893 17.5995 28.6744 16.7153 27.8822 15.9262C27.64 15.6847 27.474 15.3774 27.4048 15.0425C27.3355 14.7075 27.3659 14.3596 27.4924 14.0419C27.6221 13.7083 27.859 13.4272 28.1657 13.2428C28.4725 13.0584 28.8318 12.9811 29.1873 13.023C31.9208 13.3176 34.5542 14.2185 36.8955 15.66C39.2367 17.1014 41.2269 19.0471 42.7208 21.3553C48.2775 29.9119 45.8848 41.3193 37.3913 46.8351C30.9988 50.9864 22.9678 50.6232 17.0158 46.5455C16.7169 46.3441 16.4917 46.0508 16.3742 45.7101C16.2567 45.3693 16.2533 44.9996 16.3645 44.6568Z" fill="white"/>
<g clip-path="url(#clip1_1_116)">
<path d="M18.657 26.247C18.767 25.917 19.233 25.917 19.343 26.247L19.988 28.184C20.13 28.6098 20.3692 28.9966 20.6866 29.3139C21.0041 29.6312 21.3911 29.8702 21.817 30.012L23.753 30.657C24.083 30.767 24.083 31.233 23.753 31.343L21.816 31.988C21.3902 32.1299 21.0033 32.3691 20.686 32.6866C20.3687 33.0041 20.1297 33.3911 19.988 33.817L19.343 35.753C19.3193 35.8252 19.2733 35.8882 19.2118 35.9328C19.1502 35.9774 19.076 36.0014 19 36.0014C18.9239 36.0014 18.8498 35.9774 18.7882 35.9328C18.7266 35.8882 18.6807 35.8252 18.657 35.753L18.012 33.816C17.8701 33.3903 17.6311 33.0035 17.3138 32.6862C16.9965 32.3689 16.6097 32.1298 16.184 31.988L14.247 31.343C14.1747 31.3193 14.1118 31.2733 14.0672 31.2117C14.0226 31.1501 13.9986 31.076 13.9986 31C13.9986 30.9239 14.0226 30.8498 14.0672 30.7882C14.1118 30.7266 14.1747 30.6807 14.247 30.657L16.184 30.012C16.6097 29.8701 16.9965 29.631 17.3138 29.3138C17.6311 28.9965 17.8701 28.6097 18.012 28.184L18.657 26.247ZM14.794 21.148C14.8083 21.1047 14.836 21.067 14.8729 21.0403C14.9099 21.0136 14.9544 20.9992 15 20.9992C15.0456 20.9992 15.0901 21.0136 15.1271 21.0403C15.164 21.067 15.1917 21.1047 15.206 21.148L15.593 22.31C15.766 22.828 16.172 23.234 16.69 23.407L17.852 23.794C17.8953 23.8083 17.933 23.8359 17.9597 23.8729C17.9864 23.9099 18.0008 23.9543 18.0008 24C18.0008 24.0456 17.9864 24.09 17.9597 24.127C17.933 24.164 17.8953 24.1916 17.852 24.206L16.69 24.593C16.4344 24.6778 16.2021 24.8212 16.0116 25.0116C15.8212 25.2021 15.6778 25.4343 15.593 25.69L15.206 26.852C15.1917 26.8953 15.164 26.933 15.1271 26.9597C15.0901 26.9864 15.0456 27.0008 15 27.0008C14.9544 27.0008 14.9099 26.9864 14.8729 26.9597C14.836 26.933 14.8083 26.8953 14.794 26.852L14.407 25.69C14.3222 25.4343 14.1788 25.2021 13.9884 25.0116C13.7979 24.8212 13.5656 24.6778 13.31 24.593L12.148 24.206C12.1047 24.1916 12.067 24.164 12.0403 24.127C12.0136 24.09 11.9992 24.0456 11.9992 24C11.9992 23.9543 12.0136 23.9099 12.0403 23.8729C12.067 23.8359 12.1047 23.8083 12.148 23.794L13.31 23.407C13.5656 23.3221 13.7979 23.1788 13.9884 22.9883C14.1788 22.7979 14.3222 22.5656 14.407 22.31L14.794 21.148ZM21.863 20.099C21.8729 20.0705 21.8914 20.0458 21.9159 20.0283C21.9405 20.0109 21.9699 20.0015 22 20.0015C22.0301 20.0015 22.0595 20.0109 22.0841 20.0283C22.1086 20.0458 22.1271 20.0705 22.137 20.099L22.395 20.873C22.51 21.219 22.781 21.49 23.127 21.605L23.901 21.863C23.9295 21.8728 23.9542 21.8913 23.9716 21.9159C23.9891 21.9404 23.9985 21.9698 23.9985 22C23.9985 22.0301 23.9891 22.0595 23.9716 22.084C23.9542 22.1086 23.9295 22.1271 23.901 22.137L23.127 22.395C22.9566 22.452 22.8018 22.5478 22.6748 22.6748C22.5478 22.8018 22.452 22.9566 22.395 23.127L22.137 23.901C22.1271 23.9294 22.1086 23.9541 22.0841 23.9716C22.0595 23.9891 22.0301 23.9985 22 23.9985C21.9699 23.9985 21.9405 23.9891 21.9159 23.9716C21.8914 23.9541 21.8729 23.9294 21.863 23.901L21.605 23.127C21.548 22.9566 21.4522 22.8018 21.3252 22.6748C21.1981 22.5478 21.0434 22.452 20.873 22.395L20.1 22.137C20.0715 22.1271 20.0468 22.1086 20.0294 22.084C20.0119 22.0595 20.0025 22.0301 20.0025 22C20.0025 21.9698 20.0119 21.9404 20.0294 21.9159C20.0468 21.8913 20.0715 21.8728 20.1 21.863L20.874 21.605C21.22 21.49 21.491 21.219 21.606 20.873L21.863 20.099Z" fill="white"/>
</g>
</g>
<defs>
<clipPath id="clip0_1_116">
<rect width="35.4104" height="35.4104" fill="white" transform="translate(22.915 55.9214) rotate(-123)"/>
</clipPath>
<clipPath id="clip1_1_116">
<rect width="16" height="16" fill="white" transform="translate(11 20)"/>
</clipPath>
</defs>
</svg>
