<svg width="64" height="64" viewBox="0 0 64 64" fill="none" xmlns="http://www.w3.org/2000/svg">
<circle cx="32" cy="32" r="32" fill="#C7B66C"/>
<g clip-path="url(#clip0_9_987)">
<path d="M39 32C39 33.8565 38.2625 35.637 36.9497 36.9497C35.637 38.2625 33.8565 39 32 39C30.1435 39 28.363 38.2625 27.0503 36.9497C25.7375 35.637 25 33.8565 25 32C25 30.1435 25.7375 28.363 27.0503 27.0503C28.363 25.7375 30.1435 25 32 25C33.8565 25 35.637 25.7375 36.9497 27.0503C38.2625 28.363 39 30.1435 39 32ZM32 18C32.2321 18 32.4546 18.0922 32.6187 18.2563C32.7828 18.4204 32.875 18.6429 32.875 18.875V22.375C32.875 22.6071 32.7828 22.8296 32.6187 22.9937C32.4546 23.1578 32.2321 23.25 32 23.25C31.7679 23.25 31.5454 23.1578 31.3813 22.9937C31.2172 22.8296 31.125 22.6071 31.125 22.375V18.875C31.125 18.6429 31.2172 18.4204 31.3813 18.2563C31.5454 18.0922 31.7679 18 32 18ZM32 40.75C32.2321 40.75 32.4546 40.8422 32.6187 41.0063C32.7828 41.1704 32.875 41.3929 32.875 41.625V45.125C32.875 45.3571 32.7828 45.5796 32.6187 45.7437C32.4546 45.9078 32.2321 46 32 46C31.7679 46 31.5454 45.9078 31.3813 45.7437C31.2172 45.5796 31.125 45.3571 31.125 45.125V41.625C31.125 41.3929 31.2172 41.1704 31.3813 41.0063C31.5454 40.8422 31.7679 40.75 32 40.75ZM46 32C46 32.2321 45.9078 32.4546 45.7437 32.6187C45.5796 32.7828 45.3571 32.875 45.125 32.875H41.625C41.3929 32.875 41.1704 32.7828 41.0063 32.6187C40.8422 32.4546 40.75 32.2321 40.75 32C40.75 31.7679 40.8422 31.5454 41.0063 31.3813C41.1704 31.2172 41.3929 31.125 41.625 31.125H45.125C45.3571 31.125 45.5796 31.2172 45.7437 31.3813C45.9078 31.5454 46 31.7679 46 32ZM23.25 32C23.25 32.2321 23.1578 32.4546 22.9937 32.6187C22.8296 32.7828 22.6071 32.875 22.375 32.875H18.875C18.6429 32.875 18.4204 32.7828 18.2563 32.6187C18.0922 32.4546 18 32.2321 18 32C18 31.7679 18.0922 31.5454 18.2563 31.3813C18.4204 31.2172 18.6429 31.125 18.875 31.125H22.375C22.6071 31.125 22.8296 31.2172 22.9937 31.3813C23.1578 31.5454 23.25 31.7679 23.25 32ZM41.8997 22.1002C42.0638 22.2643 42.1559 22.4869 42.1559 22.7189C42.1559 22.9509 42.0638 23.1734 41.8997 23.3375L39.4253 25.8138C39.3439 25.895 39.2473 25.9594 39.1411 26.0033C39.0348 26.0473 38.921 26.0698 38.806 26.0697C38.5738 26.0696 38.3512 25.9772 38.1871 25.8129C38.1059 25.7315 38.0415 25.635 37.9975 25.5287C37.9536 25.4225 37.9311 25.3086 37.9311 25.1936C37.9313 24.9614 38.0237 24.7388 38.188 24.5747L40.6625 22.1002C40.8266 21.9362 41.0491 21.8441 41.2811 21.8441C41.5131 21.8441 41.7357 21.9362 41.8997 22.1002ZM25.812 38.188C25.976 38.3521 26.0682 38.5746 26.0682 38.8066C26.0682 39.0386 25.976 39.2612 25.812 39.4253L23.3375 41.8997C23.1725 42.0591 22.9514 42.1473 22.722 42.1453C22.4926 42.1433 22.2731 42.0513 22.1109 41.8891C21.9487 41.7269 21.8567 41.5074 21.8547 41.278C21.8527 41.0486 21.9409 40.8275 22.1002 40.6625L24.5747 38.188C24.7388 38.024 24.9614 37.9318 25.1934 37.9318C25.4254 37.9318 25.6479 38.024 25.812 38.188ZM41.8997 41.8997C41.7357 42.0638 41.5131 42.1559 41.2811 42.1559C41.0491 42.1559 40.8266 42.0638 40.6625 41.8997L38.188 39.4253C38.0286 39.2602 37.9404 39.0392 37.9424 38.8098C37.9444 38.5804 38.0364 38.3609 38.1987 38.1987C38.3609 38.0364 38.5804 37.9444 38.8098 37.9424C39.0392 37.9404 39.2602 38.0286 39.4253 38.188L41.8997 40.6625C42.0638 40.8266 42.1559 41.0491 42.1559 41.2811C42.1559 41.5131 42.0638 41.7357 41.8997 41.8997ZM25.812 25.8138C25.6479 25.9778 25.4254 26.0699 25.1934 26.0699C24.9614 26.0699 24.7388 25.9778 24.5747 25.8138L22.1002 23.3375C22.0167 23.2568 21.95 23.1602 21.9042 23.0535C21.8583 22.9467 21.8342 22.8319 21.8332 22.7157C21.8321 22.5995 21.8543 22.4843 21.8983 22.3768C21.9423 22.2693 22.0072 22.1716 22.0894 22.0894C22.1716 22.0072 22.2693 21.9423 22.3768 21.8983C22.4843 21.8543 22.5995 21.8321 22.7157 21.8332C22.8319 21.8342 22.9467 21.8583 23.0535 21.9042C23.1602 21.95 23.2568 22.0167 23.3375 22.1002L25.812 24.5747C25.8935 24.656 25.9581 24.7526 26.0022 24.8589C26.0464 24.9652 26.0691 25.0792 26.0691 25.1943C26.0691 25.3093 26.0464 25.4233 26.0022 25.5296C25.9581 25.6359 25.8935 25.7325 25.812 25.8138Z" fill="white"/>
</g>
<defs>
<clipPath id="clip0_9_987">
<rect width="28" height="28" fill="white" transform="translate(18 18)"/>
</clipPath>
</defs>
</svg>
