<svg width="405" height="168" viewBox="0 0 405 168" fill="none" xmlns="http://www.w3.org/2000/svg">
<path d="M39.4827 135.651C75.0592 135.651 110.572 135.989 146.156 135.989C169.215 135.989 192.274 135.989 215.333 135.989C264.439 135.989 313.624 135.651 362.721 135.651" stroke="#4F5E63" stroke-width="3" stroke-linecap="round"/>
<path d="M51.0269 143.09C84.0628 143.09 117.039 143.429 150.081 143.429C171.492 143.429 192.905 143.429 214.316 143.429C259.916 143.429 305.586 143.09 351.177 143.09" stroke="#4F5E63" stroke-width="3" stroke-linecap="round"/>
<path d="M62.5712 150.53C93.0655 150.53 123.505 150.868 154.005 150.868C173.77 150.868 193.534 150.868 213.3 150.868C255.391 150.868 297.55 150.53 339.633 150.53" stroke="#4F5E63" stroke-width="3" stroke-linecap="round"/>
<path d="M74.1154 157.969C102.069 157.969 129.971 158.306 157.93 158.306C176.048 158.306 194.165 158.306 212.283 158.306C250.867 158.306 289.512 157.969 328.088 157.969" stroke="#4F5E63" stroke-width="3" stroke-linecap="round"/>
<path d="M85.6596 165.408C111.072 165.408 136.438 165.745 161.854 165.745C178.326 165.745 194.796 165.745 211.266 165.745C246.343 165.745 281.475 165.408 316.544 165.408" stroke="#4F5E63" stroke-width="3" stroke-linecap="round"/>
<path d="M9.12 130.392C7.008 130.392 5.504 129.944 4.608 129.048C3.776 128.152 3.36 126.776 3.36 124.92V71.064C6.368 68.888 10.144 67.096 14.688 65.688C19.232 64.216 24.064 63.48 29.184 63.48C48.832 63.48 58.656 71.672 58.656 88.056C58.656 95.416 56.608 101.336 52.512 105.816C48.416 110.232 42.528 112.44 34.848 112.44C33.312 112.44 31.68 112.28 29.952 111.96C28.288 111.64 26.944 111.256 25.92 110.808V124.92C25.92 126.84 25.472 128.216 24.576 129.048C23.744 129.944 22.24 130.392 20.064 130.392H9.12ZM29.952 97.272C31.872 97.272 33.312 96.408 34.272 94.68C35.232 92.952 35.712 90.744 35.712 88.056C35.712 84.6 35.072 82.2 33.792 80.856C32.576 79.448 30.752 78.744 28.32 78.744C27.168 78.744 26.24 78.872 25.536 79.128V92.568C25.536 94.232 25.856 95.448 26.496 96.216C27.2 96.92 28.352 97.272 29.952 97.272ZM71.1338 61.56C68.6378 61.56 66.7178 60.92 65.3738 59.64C64.0938 58.296 63.4538 56.696 63.4538 54.84V52.44C63.4538 50.584 64.0938 49.016 65.3738 47.736C66.7178 46.392 68.6378 45.72 71.1338 45.72H79.4858C81.9818 45.72 83.9018 46.392 85.2458 47.736C86.5898 49.016 87.2618 50.584 87.2618 52.44V54.84C87.2618 56.696 86.5898 58.296 85.2458 59.64C83.9018 60.92 81.9818 61.56 79.4858 61.56H71.1338ZM69.5978 111C67.4858 111 65.9818 110.552 65.0858 109.656C64.2538 108.76 63.8378 107.384 63.8378 105.528V70.392C63.8378 68.536 64.2538 67.16 65.0858 66.264C65.9818 65.368 67.4858 64.92 69.5978 64.92H81.0218C83.1978 64.92 84.7018 65.368 85.5338 66.264C86.4298 67.096 86.8778 68.472 86.8778 70.392V105.528C86.8778 107.384 86.4298 108.76 85.5338 109.656C84.7018 110.552 83.1978 111 81.0218 111H69.5978ZM120.608 112.44C111.392 112.44 104.32 110.36 99.3923 106.2C94.5283 101.976 92.0963 95.896 92.0963 87.96C92.0963 83.032 93.2483 78.744 95.5523 75.096C97.8563 71.384 101.184 68.536 105.536 66.552C109.888 64.504 115.072 63.48 121.088 63.48C125.568 63.48 129.376 63.928 132.512 64.824C135.648 65.72 138.432 67 140.864 68.664C141.632 69.24 142.016 69.88 142.016 70.584C142.016 71.16 141.728 71.96 141.152 72.984L136.544 80.952C136.032 81.912 135.392 82.392 134.624 82.392C134.048 82.392 133.344 82.104 132.512 81.528C130.976 80.504 129.536 79.768 128.192 79.32C126.912 78.872 125.28 78.648 123.296 78.648C120.864 78.648 118.88 79.48 117.344 81.144C115.808 82.808 115.04 85.08 115.04 87.96C115.04 90.904 115.808 93.176 117.344 94.776C118.944 96.376 121.056 97.176 123.68 97.176C125.408 97.176 127.008 96.92 128.48 96.408C129.952 95.896 131.52 95.16 133.184 94.2C134.144 93.624 134.88 93.336 135.392 93.336C136.096 93.336 136.704 93.816 137.216 94.776L142.304 103.512C142.688 104.152 142.88 104.696 142.88 105.144C142.88 105.912 142.432 106.552 141.536 107.064C138.592 108.856 135.488 110.2 132.224 111.096C129.024 111.992 125.152 112.44 120.608 112.44ZM173.559 112.44C167.031 112.44 162.007 110.68 158.487 107.16C154.967 103.576 153.207 98.616 153.207 92.28V80.28H150.135C148.087 80.28 146.679 79.864 145.911 79.032C145.207 78.136 144.855 76.728 144.855 74.808V70.392C144.855 68.472 145.207 67.096 145.911 66.264C146.679 65.368 148.087 64.92 150.135 64.92H153.207V63.864C153.207 62.2 153.623 60.536 154.455 58.872C155.287 57.144 156.439 55.032 157.911 52.536C158.615 51.32 159.287 50.52 159.927 50.136C160.567 49.752 161.751 49.56 163.479 49.56H170.391C172.567 49.56 174.071 50.008 174.903 50.904C175.799 51.736 176.247 53.112 176.247 55.032V64.92H182.007C184.055 64.92 185.431 65.368 186.135 66.264C186.903 67.096 187.287 68.472 187.287 70.392V74.808C187.287 76.728 186.903 78.136 186.135 79.032C185.431 79.864 184.055 80.28 182.007 80.28H176.247V91.896C176.247 93.368 176.535 94.488 177.111 95.256C177.751 95.96 178.743 96.312 180.087 96.312C181.047 96.312 181.751 96.216 182.199 96.024C182.647 95.832 183.319 95.448 184.215 94.872C184.791 94.488 185.335 94.296 185.847 94.296C186.615 94.296 187.255 94.744 187.767 95.64L192.279 103.416C192.855 104.44 193.143 105.272 193.143 105.912C193.143 106.616 192.759 107.224 191.991 107.736C189.623 109.272 186.967 110.424 184.023 111.192C181.143 112.024 177.655 112.44 173.559 112.44ZM210.283 112.44C204.971 112.44 200.779 110.968 197.707 108.024C194.635 105.016 193.099 100.504 193.099 94.488V70.392C193.099 68.536 193.515 67.16 194.347 66.264C195.243 65.368 196.747 64.92 198.859 64.92H210.283C212.459 64.92 213.963 65.368 214.795 66.264C215.691 67.096 216.139 68.472 216.139 70.392V93.432C216.139 94.712 216.363 95.672 216.811 96.312C217.323 96.888 218.123 97.176 219.211 97.176C220.427 97.176 221.259 96.888 221.707 96.312C222.155 95.672 222.379 94.712 222.379 93.432V70.392C222.379 68.536 222.795 67.16 223.627 66.264C224.523 65.368 226.027 64.92 228.139 64.92H239.563C241.739 64.92 243.243 65.368 244.075 66.264C244.971 67.096 245.419 68.472 245.419 70.392V107.832C245.419 109.112 245.163 109.976 244.651 110.424C244.203 110.808 243.243 111 241.771 111H229.675C228.843 111 228.203 110.936 227.755 110.808C227.371 110.616 227.115 110.232 226.987 109.656L226.411 107.256C224.683 108.792 222.379 110.04 219.499 111C216.683 111.96 213.611 112.44 210.283 112.44ZM258.029 111C255.917 111 254.413 110.552 253.517 109.656C252.621 108.76 252.173 107.384 252.173 105.528V68.088C252.173 66.808 252.397 65.976 252.845 65.592C253.357 65.144 254.349 64.92 255.821 64.92H267.917C268.749 64.92 269.357 65.016 269.741 65.208C270.189 65.336 270.477 65.688 270.605 66.264L271.181 68.664C275.085 65.208 279.565 63.48 284.621 63.48C287.117 63.48 289.101 63.672 290.573 64.056C292.045 64.44 293.421 65.112 294.701 66.072C295.405 66.584 295.757 67.128 295.757 67.704C295.757 68.088 295.661 68.536 295.469 69.048L291.725 79.224C291.341 80.248 290.829 80.76 290.189 80.76C289.805 80.76 289.357 80.6 288.845 80.28C287.821 79.704 286.829 79.288 285.869 79.032C284.909 78.776 283.661 78.648 282.125 78.648C280.077 78.648 278.413 79.192 277.133 80.28C275.853 81.368 275.213 82.84 275.213 84.696V105.528C275.213 107.384 274.765 108.76 273.869 109.656C273.037 110.552 271.565 111 269.453 111H258.029ZM325.265 112.44C319.761 112.44 314.833 111.512 310.481 109.656C306.193 107.8 302.833 105.08 300.401 101.496C297.969 97.848 296.753 93.464 296.753 88.344C296.753 80.28 299.089 74.136 303.761 69.912C308.497 65.624 315.313 63.48 324.209 63.48C332.913 63.48 339.505 65.592 343.985 69.816C348.465 73.976 350.705 79.672 350.705 86.904C350.705 88.76 350.321 90.136 349.552 91.032C348.785 91.928 347.601 92.376 346 92.376H318.353C318.353 94.296 319.281 95.832 321.137 96.984C322.993 98.072 325.553 98.616 328.817 98.616C331.313 98.616 333.329 98.424 334.865 98.04C336.401 97.592 338.065 96.92 339.857 96.024C340.625 95.64 341.233 95.448 341.681 95.448C342.257 95.448 342.801 95.896 343.312 96.792L347.057 103.896C347.441 104.536 347.633 105.112 347.633 105.624C347.633 106.328 347.185 106.936 346.289 107.448C340.849 110.776 333.841 112.44 325.265 112.44ZM330.353 81.624C330.353 78.168 328.337 76.44 324.305 76.44C322.321 76.44 320.817 76.92 319.793 77.88C318.833 78.776 318.353 80.024 318.353 81.624H330.353ZM378.909 112.44C369.693 112.44 361.949 110.712 355.677 107.256C354.269 106.488 353.565 105.72 353.565 104.952C353.565 104.504 353.757 103.96 354.141 103.32L358.845 94.872C359.293 94.104 359.837 93.72 360.477 93.72C360.989 93.72 361.629 93.912 362.397 94.296C364.125 95.192 366.365 96.056 369.117 96.888C371.869 97.656 374.269 98.04 376.317 98.04C377.661 98.04 378.589 97.944 379.101 97.752C379.613 97.496 379.869 97.112 379.869 96.6C379.869 96.088 379.389 95.64 378.429 95.256C377.533 94.872 375.997 94.392 373.821 93.816C373.181 93.624 372.541 93.464 371.901 93.336C371.325 93.144 370.749 92.952 370.173 92.76C364.861 91.16 361.053 89.336 358.749 87.288C356.509 85.176 355.389 82.264 355.389 78.552C355.389 73.688 357.501 69.976 361.725 67.416C365.949 64.792 371.677 63.48 378.909 63.48C383.389 63.48 387.197 63.864 390.333 64.632C393.533 65.336 396.669 66.488 399.741 68.088C401.085 68.856 401.757 69.656 401.757 70.488C401.757 71 401.501 71.672 400.989 72.504L396.381 79.8C395.869 80.568 395.389 80.952 394.941 80.952C394.749 80.952 394.141 80.728 393.117 80.28C391.645 79.576 389.949 79 388.029 78.552C386.109 78.04 384.349 77.784 382.749 77.784C379.293 77.784 377.565 78.36 377.565 79.512C377.565 80.024 378.109 80.472 379.197 80.856C380.349 81.24 382.269 81.752 384.957 82.392C388.477 83.224 390.909 83.864 392.253 84.312C395.133 85.336 397.341 86.392 398.877 87.48C400.413 88.568 401.469 89.848 402.045 91.32C402.685 92.728 403.005 94.584 403.005 96.888C403.005 99.704 402.109 102.296 400.317 104.664C398.589 107.032 395.901 108.92 392.253 110.328C388.669 111.736 384.221 112.44 378.909 112.44Z" fill="#CCB96D"/>
</svg>
