<svg width="327" height="162" viewBox="0 0 327 162" fill="none" xmlns="http://www.w3.org/2000/svg">
<path d="M19.6087 131.237C51.4312 131.237 83.1968 131.562 115.026 131.562C135.652 131.562 156.277 131.562 176.903 131.562C220.828 131.562 264.823 131.237 308.739 131.237" stroke="#4F5E63" stroke-width="3" stroke-linecap="round"/>
<path d="M29.9348 138.402C59.4848 138.402 88.981 138.728 118.537 138.728C137.689 138.728 156.842 138.728 175.994 138.728C216.782 138.728 257.633 138.402 298.413 138.402" stroke="#4F5E63" stroke-width="3" stroke-linecap="round"/>
<path d="M40.2609 145.569C67.5375 145.569 94.7653 145.894 122.047 145.894C139.726 145.894 157.405 145.894 175.085 145.894C212.735 145.894 250.445 145.569 288.087 145.569" stroke="#4F5E63" stroke-width="3" stroke-linecap="round"/>
<path d="M50.5869 152.734C75.5909 152.734 100.549 153.059 125.558 153.059C141.764 153.059 157.969 153.059 174.175 153.059C208.688 153.059 243.255 152.734 277.761 152.734" stroke="#4F5E63" stroke-width="3" stroke-linecap="round"/>
<path d="M60.913 159.9C83.6436 159.9 106.333 160.225 129.068 160.225C143.801 160.225 158.533 160.225 173.266 160.225C204.641 160.225 236.066 159.9 267.435 159.9" stroke="#4F5E63" stroke-width="3" stroke-linecap="round"/>
<path d="M3.552 111C2.144 111 1.44 110.328 1.44 108.984C1.44 108.408 1.6 107.704 1.92 106.872L25.824 49.368C26.4 48.024 27.04 47.096 27.744 46.584C28.512 46.008 29.568 45.72 30.912 45.72H41.376C42.72 45.72 43.744 46.008 44.448 46.584C45.216 47.096 45.888 48.024 46.464 49.368L70.272 106.872C70.592 107.704 70.752 108.408 70.752 108.984C70.752 110.328 70.048 111 68.64 111H50.592C48.608 111 47.36 110.136 46.848 108.408L44.544 101.304H27.552L25.344 108.408C24.832 110.136 23.584 111 21.6 111H3.552ZM39.84 86.136L36.096 74.232L32.352 86.136H39.84ZM98.7645 112.44C89.5485 112.44 82.4765 110.36 77.5485 106.2C72.6845 101.976 70.2525 95.896 70.2525 87.96C70.2525 83.032 71.4045 78.744 73.7085 75.096C76.0125 71.384 79.3405 68.536 83.6925 66.552C88.0445 64.504 93.2285 63.48 99.2445 63.48C103.725 63.48 107.533 63.928 110.669 64.824C113.805 65.72 116.589 67 119.021 68.664C119.789 69.24 120.173 69.88 120.173 70.584C120.173 71.16 119.885 71.96 119.309 72.984L114.701 80.952C114.189 81.912 113.549 82.392 112.781 82.392C112.205 82.392 111.501 82.104 110.669 81.528C109.133 80.504 107.693 79.768 106.349 79.32C105.069 78.872 103.437 78.648 101.453 78.648C99.0205 78.648 97.0365 79.48 95.5005 81.144C93.9645 82.808 93.1965 85.08 93.1965 87.96C93.1965 90.904 93.9645 93.176 95.5005 94.776C97.1005 96.376 99.2125 97.176 101.837 97.176C103.565 97.176 105.165 96.92 106.637 96.408C108.109 95.896 109.677 95.16 111.341 94.2C112.301 93.624 113.037 93.336 113.549 93.336C114.253 93.336 114.861 93.816 115.373 94.776L120.461 103.512C120.845 104.152 121.037 104.696 121.037 105.144C121.037 105.912 120.589 106.552 119.693 107.064C116.749 108.856 113.645 110.2 110.381 111.096C107.181 111.992 103.309 112.44 98.7645 112.44ZM151.715 112.44C145.187 112.44 140.163 110.68 136.643 107.16C133.123 103.576 131.363 98.616 131.363 92.28V80.28H128.291C126.243 80.28 124.835 79.864 124.067 79.032C123.363 78.136 123.011 76.728 123.011 74.808V70.392C123.011 68.472 123.363 67.096 124.067 66.264C124.835 65.368 126.243 64.92 128.291 64.92H131.363V63.864C131.363 62.2 131.779 60.536 132.611 58.872C133.443 57.144 134.595 55.032 136.067 52.536C136.771 51.32 137.443 50.52 138.083 50.136C138.723 49.752 139.907 49.56 141.635 49.56H148.547C150.723 49.56 152.227 50.008 153.059 50.904C153.955 51.736 154.403 53.112 154.403 55.032V64.92H160.163C162.211 64.92 163.587 65.368 164.291 66.264C165.059 67.096 165.443 68.472 165.443 70.392V74.808C165.443 76.728 165.059 78.136 164.291 79.032C163.587 79.864 162.211 80.28 160.163 80.28H154.403V91.896C154.403 93.368 154.691 94.488 155.267 95.256C155.907 95.96 156.899 96.312 158.243 96.312C159.203 96.312 159.907 96.216 160.355 96.024C160.803 95.832 161.475 95.448 162.371 94.872C162.947 94.488 163.491 94.296 164.003 94.296C164.771 94.296 165.411 94.744 165.923 95.64L170.435 103.416C171.011 104.44 171.299 105.272 171.299 105.912C171.299 106.616 170.915 107.224 170.147 107.736C167.779 109.272 165.123 110.424 162.179 111.192C159.299 112.024 155.811 112.44 151.715 112.44ZM197.486 112.44C191.534 112.44 186.382 111.448 182.03 109.464C177.742 107.416 174.478 104.568 172.238 100.92C169.998 97.208 168.878 92.888 168.878 87.96C168.878 82.968 169.998 78.648 172.238 75C174.478 71.288 177.742 68.44 182.03 66.456C186.382 64.472 191.534 63.48 197.486 63.48C206.51 63.48 213.55 65.688 218.606 70.104C223.662 74.456 226.19 80.408 226.19 87.96C226.19 92.888 225.038 97.208 222.734 100.92C220.494 104.568 217.23 107.416 212.942 109.464C208.654 111.448 203.502 112.44 197.486 112.44ZM197.486 96.312C201.326 96.312 203.246 93.528 203.246 87.96C203.246 85.016 202.734 82.904 201.71 81.624C200.75 80.344 199.342 79.704 197.486 79.704C195.63 79.704 194.222 80.344 193.262 81.624C192.302 82.904 191.822 85.016 191.822 87.96C191.822 93.528 193.71 96.312 197.486 96.312ZM236.841 111C234.729 111 233.225 110.552 232.329 109.656C231.433 108.76 230.985 107.384 230.985 105.528V68.088C230.985 66.808 231.209 65.976 231.657 65.592C232.169 65.144 233.161 64.92 234.633 64.92H246.729C247.561 64.92 248.169 65.016 248.553 65.208C249.001 65.336 249.289 65.688 249.417 66.264L249.993 68.664C253.897 65.208 258.377 63.48 263.433 63.48C265.929 63.48 267.913 63.672 269.385 64.056C270.857 64.44 272.233 65.112 273.513 66.072C274.217 66.584 274.569 67.128 274.569 67.704C274.569 68.088 274.473 68.536 274.281 69.048L270.537 79.224C270.153 80.248 269.641 80.76 269.001 80.76C268.617 80.76 268.169 80.6 267.657 80.28C266.633 79.704 265.641 79.288 264.681 79.032C263.721 78.776 262.473 78.648 260.937 78.648C258.889 78.648 257.225 79.192 255.945 80.28C254.665 81.368 254.025 82.84 254.025 84.696V105.528C254.025 107.384 253.577 108.76 252.681 109.656C251.849 110.552 250.377 111 248.265 111H236.841ZM300.909 112.44C291.693 112.44 283.949 110.712 277.677 107.256C276.269 106.488 275.565 105.72 275.565 104.952C275.565 104.504 275.757 103.96 276.141 103.32L280.845 94.872C281.293 94.104 281.837 93.72 282.477 93.72C282.989 93.72 283.629 93.912 284.397 94.296C286.125 95.192 288.365 96.056 291.117 96.888C293.869 97.656 296.269 98.04 298.317 98.04C299.661 98.04 300.589 97.944 301.101 97.752C301.613 97.496 301.869 97.112 301.869 96.6C301.869 96.088 301.389 95.64 300.429 95.256C299.533 94.872 297.997 94.392 295.821 93.816C295.181 93.624 294.541 93.464 293.901 93.336C293.325 93.144 292.749 92.952 292.173 92.76C286.861 91.16 283.053 89.336 280.749 87.288C278.509 85.176 277.389 82.264 277.389 78.552C277.389 73.688 279.501 69.976 283.725 67.416C287.949 64.792 293.677 63.48 300.909 63.48C305.389 63.48 309.197 63.864 312.333 64.632C315.533 65.336 318.669 66.488 321.741 68.088C323.085 68.856 323.757 69.656 323.757 70.488C323.757 71 323.501 71.672 322.989 72.504L318.381 79.8C317.869 80.568 317.389 80.952 316.941 80.952C316.749 80.952 316.141 80.728 315.117 80.28C313.645 79.576 311.949 79 310.029 78.552C308.109 78.04 306.349 77.784 304.749 77.784C301.293 77.784 299.565 78.36 299.565 79.512C299.565 80.024 300.109 80.472 301.197 80.856C302.349 81.24 304.269 81.752 306.957 82.392C310.477 83.224 312.909 83.864 314.253 84.312C317.133 85.336 319.341 86.392 320.877 87.48C322.413 88.568 323.469 89.848 324.045 91.32C324.685 92.728 325.005 94.584 325.005 96.888C325.005 99.704 324.109 102.296 322.317 104.664C320.589 107.032 317.901 108.92 314.253 110.328C310.669 111.736 306.221 112.44 300.909 112.44Z" fill="#CCB96D"/>
</svg>
