<svg width="90" height="136" viewBox="0 0 90 136" fill="none" xmlns="http://www.w3.org/2000/svg">
<path d="M1.35147 102.124L14.2817 36.8437H29.6225L28.0519 44.8182H28.746C29.6712 43.5408 30.901 42.2425 32.435 40.9237C33.9935 39.5844 35.9295 38.4716 38.2428 37.5856C40.5559 36.6789 43.271 36.2256 46.3879 36.2256C50.5032 36.2256 54.095 37.1322 57.1632 38.9456C60.2314 40.7382 62.4473 43.448 63.8108 47.0746C65.1989 50.6808 65.3572 55.2037 64.2857 60.6437C63.2629 65.9394 61.3758 70.411 58.6242 74.0582C55.8969 77.6849 52.6217 80.4358 48.7986 82.311C45 84.1656 40.9699 85.0928 36.7086 85.0928C33.6891 85.0928 31.2054 84.6704 29.2572 83.8256C27.3337 82.9808 25.8361 81.9194 24.7646 80.642C23.6932 79.3437 22.9383 78.0352 22.5 76.7165H21.9157L16.9481 102.124H1.35147ZM24.8376 60.582C24.3019 63.4049 24.2777 65.8673 24.7646 67.9692C25.276 70.071 26.2987 71.7092 27.8328 72.8837C29.3668 74.0377 31.388 74.6146 33.8961 74.6146C36.4286 74.6146 38.681 74.0273 40.6535 72.8528C42.6258 71.6577 44.2696 70.0092 45.5844 67.9073C46.8993 65.7849 47.8369 63.3432 48.3969 60.582C48.9083 57.8413 48.9205 55.4304 48.4335 53.3492C47.9464 51.268 46.948 49.6401 45.4383 48.4656C43.9285 47.291 41.8831 46.7037 39.3019 46.7037C36.7938 46.7037 34.5414 47.2704 32.5447 48.4037C30.5722 49.537 28.9286 51.1444 27.6136 53.2256C26.2987 55.3068 25.3734 57.7589 24.8376 60.582Z" fill="#CCB96D" fill-opacity="0.84"/>
<path d="M51.0633 119.247C45.3409 119.247 40.6048 118.217 36.8547 116.156C33.1047 114.075 30.4626 111.19 28.9286 107.502C27.4188 103.793 27.1389 99.4758 28.0885 94.551C29.0138 89.688 30.9375 85.4328 33.8596 81.7856C36.7817 78.1382 40.4952 75.3049 45 73.2856C49.5048 71.2456 54.5819 70.2256 60.2314 70.2256C65.9293 70.2256 70.6534 71.2661 74.4035 73.3473C78.1534 75.408 80.7954 78.2928 82.3296 82.002C83.8636 85.711 84.1558 90.028 83.2061 94.9528C82.2565 99.7952 80.3084 104.04 77.3621 107.687C74.4155 111.335 70.7021 114.178 66.2215 116.218C61.7411 118.238 56.6883 119.247 51.0633 119.247ZM52.5974 109.047C55.2272 109.047 57.5528 108.419 59.5739 107.162C61.6193 105.884 63.3116 104.153 64.651 101.969C66.0147 99.7644 66.9643 97.271 67.5 94.4892C68.0357 91.7485 68.0723 89.317 67.6096 87.1946C67.1469 85.0516 66.1728 83.362 64.6875 82.1256C63.2264 80.8892 61.2175 80.271 58.6607 80.271C56.0308 80.271 53.6932 80.9097 51.6478 82.1873C49.6022 83.4444 47.9099 85.1753 46.5707 87.3801C45.2313 89.5849 44.2938 92.0885 43.7582 94.891C43.2468 97.611 43.2103 100.042 43.6486 102.186C44.0868 104.308 45.0487 105.987 46.534 107.224C48.0195 108.439 50.0406 109.047 52.5974 109.047Z" fill="#2C5362" fill-opacity="0.8"/>
<path d="M25.6412 108.8L34.9919 61.3236H50.5519L41.2014 108.8H25.6412ZM44.379 55.1418C42.0657 55.1418 40.1542 54.4927 38.6446 53.1945C37.1591 51.8757 36.5503 50.3096 36.8182 48.4963C37.0861 46.6418 38.1332 45.0757 39.9594 43.7981C41.7857 42.5 43.8556 41.8508 46.1689 41.8508C48.4822 41.8508 50.3693 42.5 51.8304 43.7981C53.2914 45.0757 53.9002 46.6418 53.6567 48.4963C53.4131 50.3096 52.3782 51.8757 50.5519 53.1945C48.75 54.4927 46.6923 55.1418 44.379 55.1418Z" fill="black"/>
</svg>
