<svg width="539" height="64" viewBox="0 0 539 64" fill="none" xmlns="http://www.w3.org/2000/svg">
<path d="M0.840909 63.0909L8.88636 15.0909H18.4318L17.4545 20.9545H17.8864C18.4621 20.0152 19.2273 19.0606 20.1818 18.0909C21.1515 17.1061 22.3561 16.2879 23.7955 15.6364C25.2348 14.9697 26.9242 14.6364 28.8636 14.6364C31.4242 14.6364 33.6591 15.303 35.5682 16.6364C37.4773 17.9545 38.8561 19.947 39.7045 22.6136C40.5682 25.2652 40.6667 28.5909 40 32.5909C39.3636 36.4848 38.1894 39.7727 36.4773 42.4545C34.7803 45.1212 32.7424 47.1439 30.3636 48.5227C28 49.8864 25.4924 50.5682 22.8409 50.5682C20.9621 50.5682 19.4167 50.2576 18.2045 49.6364C17.0076 49.0152 16.0758 48.2348 15.4091 47.2955C14.7424 46.3409 14.2727 45.3788 14 44.4091H13.6364L10.5455 63.0909H0.840909ZM15.4545 32.5455C15.1212 34.6212 15.1061 36.4318 15.4091 37.9773C15.7273 39.5227 16.3636 40.7273 17.3182 41.5909C18.2727 42.4394 19.5303 42.8636 21.0909 42.8636C22.6667 42.8636 24.0682 42.4318 25.2955 41.5682C26.5227 40.6894 27.5455 39.4773 28.3636 37.9318C29.1818 36.3712 29.7652 34.5758 30.1136 32.5455C30.4318 30.5303 30.4394 28.7576 30.1364 27.2273C29.8333 25.697 29.2121 24.5 28.2727 23.6364C27.3333 22.7727 26.0606 22.3409 24.4545 22.3409C22.8939 22.3409 21.4924 22.7576 20.25 23.5909C19.0227 24.4242 18 25.6061 17.1818 27.1364C16.3636 28.6667 15.7879 30.4697 15.4545 32.5455ZM58.0552 50.6818C54.4795 50.6818 51.5173 49.9545 49.1689 48.5C46.8204 47.0303 45.1689 44.9545 44.2143 42.2727C43.2749 39.5758 43.1158 36.3864 43.737 32.7045C44.3431 29.1136 45.5628 25.9621 47.3961 23.25C49.2446 20.5379 51.5628 18.4242 54.3507 16.9091C57.1386 15.3939 60.2446 14.6364 63.6689 14.6364C65.9719 14.6364 68.0552 15.0076 69.9189 15.75C71.7977 16.4773 73.3583 17.5833 74.6007 19.0682C75.8431 20.5379 76.6916 22.3788 77.1461 24.5909C77.6158 26.803 77.6083 29.3939 77.1234 32.3636L76.6916 35.0227H47.237L48.1689 29.0227H68.5325C68.7598 27.6288 68.6689 26.3939 68.2598 25.3182C67.8507 24.2424 67.1689 23.4015 66.2143 22.7955C65.2598 22.1742 64.0855 21.8636 62.6916 21.8636C61.2674 21.8636 59.934 22.2121 58.6916 22.9091C57.4492 23.6061 56.4037 24.5227 55.5552 25.6591C54.7219 26.7803 54.184 28 53.9416 29.3182L52.8734 35.2727C52.5704 37.1061 52.631 38.6288 53.0552 39.8409C53.4946 41.053 54.2522 41.9621 55.328 42.5682C56.4037 43.1591 57.7673 43.4545 59.4189 43.4545C60.4946 43.4545 61.5022 43.303 62.4416 43C63.3961 42.697 64.2446 42.25 64.987 41.6591C65.7295 41.053 66.3355 40.303 66.8052 39.4091L75.6461 40C74.828 42.1515 73.5855 44.0303 71.9189 45.6364C70.2522 47.2273 68.2446 48.4697 65.8961 49.3636C63.5628 50.2424 60.9492 50.6818 58.0552 50.6818ZM79.2695 50L85.0877 15.0909H94.4741L93.4514 21.1818H93.815C94.815 19.0152 96.1559 17.3788 97.8377 16.2727C99.5347 15.1515 101.36 14.5909 103.315 14.5909C103.8 14.5909 104.307 14.6212 104.838 14.6818C105.383 14.7273 105.868 14.803 106.292 14.9091L104.838 23.5227C104.413 23.3712 103.807 23.25 103.02 23.1591C102.247 23.053 101.512 23 100.815 23C99.4059 23 98.0953 23.3106 96.8832 23.9318C95.6711 24.5379 94.6483 25.3864 93.815 26.4773C92.9968 27.5682 92.4589 28.8258 92.2014 30.25L88.9514 50H79.2695ZM137.336 25.0455L128.541 25.5909C128.495 24.8182 128.283 24.1288 127.904 23.5227C127.541 22.9015 127.003 22.4091 126.291 22.0455C125.594 21.6818 124.715 21.5 123.654 21.5C122.063 21.5 120.647 21.8636 119.404 22.5909C118.162 23.3182 117.457 24.25 117.291 25.3864C117.154 26.1136 117.344 26.7273 117.859 27.2273C118.374 27.7273 119.412 28.1515 120.973 28.5L127.109 29.7727C130.382 30.4697 132.745 31.6288 134.2 33.25C135.669 34.8712 136.192 36.9924 135.768 39.6136C135.389 41.8409 134.412 43.7879 132.836 45.4545C131.26 47.1061 129.26 48.3939 126.836 49.3182C124.412 50.2273 121.723 50.6818 118.768 50.6818C114.026 50.6818 110.419 49.7121 107.95 47.7727C105.48 45.8333 104.291 43.2045 104.382 39.8864L113.836 39.3864C113.912 40.8106 114.412 41.8864 115.336 42.6136C116.26 43.3258 117.526 43.6894 119.132 43.7045C120.935 43.7348 122.465 43.3636 123.723 42.5909C124.995 41.803 125.715 40.8485 125.882 39.7273C126.003 38.9394 125.776 38.303 125.2 37.8182C124.639 37.3333 123.609 36.9318 122.109 36.6136L116.291 35.4091C112.988 34.7273 110.616 33.5076 109.177 31.75C107.738 29.9924 107.245 27.7576 107.7 25.0455C108.063 22.8788 108.965 21.0227 110.404 19.4773C111.859 17.9167 113.73 16.7197 116.018 15.8864C118.321 15.053 120.919 14.6364 123.813 14.6364C128.344 14.6364 131.753 15.5682 134.041 17.4318C136.344 19.2955 137.442 21.8333 137.336 25.0455ZM154.653 50.6818C151.092 50.6818 148.145 49.9242 145.812 48.4091C143.478 46.8788 141.835 44.7576 140.88 42.0455C139.941 39.3182 139.766 36.1439 140.357 32.5227C140.933 28.947 142.13 25.8182 143.948 23.1364C145.766 20.4545 148.077 18.3712 150.88 16.8864C153.683 15.3864 156.842 14.6364 160.357 14.6364C163.903 14.6364 166.842 15.4015 169.175 16.9318C171.509 18.447 173.153 20.5682 174.107 23.2955C175.062 26.0227 175.244 29.197 174.653 32.8182C174.062 36.3788 172.85 39.5 171.016 42.1818C169.183 44.8636 166.872 46.9545 164.085 48.4545C161.297 49.9394 158.153 50.6818 154.653 50.6818ZM155.607 43.1818C157.244 43.1818 158.691 42.7197 159.948 41.7955C161.221 40.8561 162.274 39.5833 163.107 37.9773C163.956 36.3561 164.547 34.5227 164.88 32.4773C165.213 30.4621 165.236 28.6742 164.948 27.1136C164.66 25.5379 164.054 24.2955 163.13 23.3864C162.221 22.4773 160.971 22.0227 159.38 22.0227C157.744 22.0227 156.289 22.4924 155.016 23.4318C153.744 24.3561 152.691 25.6288 151.857 27.25C151.024 28.8712 150.441 30.7121 150.107 32.7727C149.789 34.7727 149.766 36.5606 150.039 38.1364C150.312 39.697 150.91 40.9318 151.835 41.8409C152.759 42.7348 154.016 43.1818 155.607 43.1818ZM189.895 29.8182L186.532 50H176.873L182.691 15.0909H191.895L190.895 21.25H191.282C192.388 19.2045 193.948 17.5909 195.964 16.4091C197.994 15.2273 200.305 14.6364 202.895 14.6364C205.32 14.6364 207.342 15.1667 208.964 16.2273C210.6 17.2879 211.752 18.7955 212.418 20.75C213.1 22.7045 213.214 25.0455 212.759 27.7727L209.032 50H199.35L202.782 29.5C203.13 27.3636 202.858 25.697 201.964 24.5C201.085 23.2879 199.668 22.6818 197.714 22.6818C196.411 22.6818 195.214 22.9621 194.123 23.5227C193.032 24.0833 192.115 24.9015 191.373 25.9773C190.645 27.0379 190.153 28.3182 189.895 29.8182ZM244.688 50.6818C241.127 50.6818 238.18 49.9242 235.847 48.4091C233.513 46.8788 231.87 44.7576 230.915 42.0455C229.976 39.3182 229.801 36.1439 230.392 32.5227C230.968 28.947 232.165 25.8182 233.983 23.1364C235.801 20.4545 238.112 18.3712 240.915 16.8864C243.718 15.3864 246.877 14.6364 250.392 14.6364C253.938 14.6364 256.877 15.4015 259.21 16.9318C261.544 18.447 263.188 20.5682 264.142 23.2955C265.097 26.0227 265.279 29.197 264.688 32.8182C264.097 36.3788 262.885 39.5 261.051 42.1818C259.218 44.8636 256.907 46.9545 254.12 48.4545C251.332 49.9394 248.188 50.6818 244.688 50.6818ZM245.642 43.1818C247.279 43.1818 248.726 42.7197 249.983 41.7955C251.256 40.8561 252.309 39.5833 253.142 37.9773C253.991 36.3561 254.582 34.5227 254.915 32.4773C255.248 30.4621 255.271 28.6742 254.983 27.1136C254.695 25.5379 254.089 24.2955 253.165 23.3864C252.256 22.4773 251.006 22.0227 249.415 22.0227C247.779 22.0227 246.324 22.4924 245.051 23.4318C243.779 24.3561 242.726 25.6288 241.892 27.25C241.059 28.8712 240.476 30.7121 240.142 32.7727C239.824 34.7727 239.801 36.5606 240.074 38.1364C240.347 39.697 240.945 40.9318 241.87 41.8409C242.794 42.7348 244.051 43.1818 245.642 43.1818ZM291.453 15.0909L290.249 22.3636H268.703L269.908 15.0909H291.453ZM268.999 50L275.249 12.5682C275.658 10.0379 276.491 7.93939 277.749 6.27272C279.021 4.60606 280.59 3.35606 282.453 2.52272C284.332 1.68939 286.362 1.27272 288.544 1.27272C290.029 1.27272 291.37 1.38636 292.567 1.61364C293.779 1.84091 294.658 2.04545 295.203 2.22727L292.317 9.5C291.953 9.37879 291.506 9.26515 290.976 9.15909C290.446 9.05303 289.885 9 289.294 9C287.885 9 286.847 9.33333 286.18 10C285.529 10.6515 285.09 11.5682 284.862 12.75L278.658 50H268.999ZM303.78 50L309.598 15.0909H319.28L313.461 50H303.78ZM315.439 10.5455C313.999 10.5455 312.81 10.0682 311.87 9.11364C310.946 8.14394 310.567 6.99242 310.734 5.65909C310.901 4.29545 311.552 3.14394 312.689 2.20454C313.825 1.25 315.113 0.772724 316.552 0.772724C317.992 0.772724 319.166 1.25 320.075 2.20454C320.984 3.14394 321.363 4.29545 321.211 5.65909C321.06 6.99242 320.416 8.14394 319.28 9.11364C318.158 10.0682 316.878 10.5455 315.439 10.5455ZM333.028 29.8182L329.664 50H320.005L325.823 15.0909H335.028L334.028 21.25H334.414C335.52 19.2045 337.081 17.5909 339.096 16.4091C341.126 15.2273 343.437 14.6364 346.028 14.6364C348.452 14.6364 350.475 15.1667 352.096 16.2273C353.733 17.2879 354.884 18.7955 355.551 20.75C356.233 22.7045 356.346 25.0455 355.892 27.7727L352.164 50H342.483L345.914 29.5C346.263 27.3636 345.99 25.697 345.096 24.5C344.217 23.2879 342.801 22.6818 340.846 22.6818C339.543 22.6818 338.346 22.9621 337.255 23.5227C336.164 24.0833 335.248 24.9015 334.505 25.9773C333.778 27.0379 333.286 28.3182 333.028 29.8182ZM382.856 15.0909L381.651 22.3636H360.606L361.833 15.0909H382.856ZM367.97 6.72727H377.651L372.242 39.2727C372.091 40.1667 372.113 40.8636 372.31 41.3636C372.507 41.8485 372.833 42.1894 373.288 42.3864C373.757 42.5833 374.318 42.6818 374.97 42.6818C375.424 42.6818 375.886 42.6439 376.356 42.5682C376.826 42.4773 377.182 42.4091 377.424 42.3636L377.788 49.5682C377.242 49.7348 376.507 49.9167 375.583 50.1136C374.674 50.3106 373.598 50.4318 372.356 50.4773C369.992 50.5682 367.992 50.2576 366.356 49.5455C364.72 48.8182 363.545 47.7045 362.833 46.2045C362.121 44.7045 361.97 42.8182 362.379 40.5455L367.97 6.72727ZM397.508 50.6818C393.932 50.6818 390.97 49.9545 388.621 48.5C386.273 47.0303 384.621 44.9545 383.667 42.2727C382.727 39.5758 382.568 36.3864 383.19 32.7045C383.796 29.1136 385.015 25.9621 386.849 23.25C388.697 20.5379 391.015 18.4242 393.803 16.9091C396.591 15.3939 399.697 14.6364 403.121 14.6364C405.424 14.6364 407.508 15.0076 409.371 15.75C411.25 16.4773 412.811 17.5833 414.053 19.0682C415.296 20.5379 416.144 22.3788 416.599 24.5909C417.068 26.803 417.061 29.3939 416.576 32.3636L416.144 35.0227H386.69L387.621 29.0227H407.985C408.212 27.6288 408.121 26.3939 407.712 25.3182C407.303 24.2424 406.621 23.4015 405.667 22.7955C404.712 22.1742 403.538 21.8636 402.144 21.8636C400.72 21.8636 399.387 22.2121 398.144 22.9091C396.902 23.6061 395.856 24.5227 395.008 25.6591C394.174 26.7803 393.637 28 393.394 29.3182L392.326 35.2727C392.023 37.1061 392.083 38.6288 392.508 39.8409C392.947 41.053 393.705 41.9621 394.78 42.5682C395.856 43.1591 397.22 43.4545 398.871 43.4545C399.947 43.4545 400.955 43.303 401.894 43C402.849 42.697 403.697 42.25 404.44 41.6591C405.182 41.053 405.788 40.303 406.258 39.4091L415.099 40C414.28 42.1515 413.038 44.0303 411.371 45.6364C409.705 47.2273 407.697 48.4697 405.349 49.3636C403.015 50.2424 400.402 50.6818 397.508 50.6818ZM418.722 50L424.54 15.0909H433.927L432.904 21.1818H433.267C434.267 19.0152 435.608 17.3788 437.29 16.2727C438.987 15.1515 440.813 14.5909 442.767 14.5909C443.252 14.5909 443.76 14.6212 444.29 14.6818C444.836 14.7273 445.321 14.803 445.745 14.9091L444.29 23.5227C443.866 23.3712 443.26 23.25 442.472 23.1591C441.699 23.053 440.964 23 440.267 23C438.858 23 437.548 23.3106 436.336 23.9318C435.124 24.5379 434.101 25.3864 433.267 26.4773C432.449 27.5682 431.911 28.8258 431.654 30.25L428.404 50H418.722ZM457.823 50.6818C454.247 50.6818 451.285 49.9545 448.936 48.5C446.588 47.0303 444.936 44.9545 443.982 42.2727C443.042 39.5758 442.883 36.3864 443.505 32.7045C444.111 29.1136 445.33 25.9621 447.164 23.25C449.012 20.5379 451.33 18.4242 454.118 16.9091C456.906 15.3939 460.012 14.6364 463.436 14.6364C465.739 14.6364 467.823 15.0076 469.686 15.75C471.565 16.4773 473.126 17.5833 474.368 19.0682C475.611 20.5379 476.459 22.3788 476.914 24.5909C477.383 26.803 477.376 29.3939 476.891 32.3636L476.459 35.0227H447.005L447.936 29.0227H468.3C468.527 27.6288 468.436 26.3939 468.027 25.3182C467.618 24.2424 466.936 23.4015 465.982 22.7955C465.027 22.1742 463.853 21.8636 462.459 21.8636C461.035 21.8636 459.702 22.2121 458.459 22.9091C457.217 23.6061 456.171 24.5227 455.323 25.6591C454.489 26.7803 453.952 28 453.709 29.3182L452.641 35.2727C452.338 37.1061 452.398 38.6288 452.823 39.8409C453.262 41.053 454.02 41.9621 455.095 42.5682C456.171 43.1591 457.535 43.4545 459.186 43.4545C460.262 43.4545 461.27 43.303 462.209 43C463.164 42.697 464.012 42.25 464.755 41.6591C465.497 41.053 466.103 40.303 466.573 39.4091L475.414 40C474.595 42.1515 473.353 44.0303 471.686 45.6364C470.02 47.2273 468.012 48.4697 465.664 49.3636C463.33 50.2424 460.717 50.6818 457.823 50.6818ZM512.196 25.0455L503.401 25.5909C503.355 24.8182 503.143 24.1288 502.764 23.5227C502.401 22.9015 501.863 22.4091 501.151 22.0455C500.454 21.6818 499.575 21.5 498.514 21.5C496.923 21.5 495.507 21.8636 494.264 22.5909C493.022 23.3182 492.317 24.25 492.151 25.3864C492.014 26.1136 492.204 26.7273 492.719 27.2273C493.234 27.7273 494.272 28.1515 495.832 28.5L501.969 29.7727C505.242 30.4697 507.605 31.6288 509.06 33.25C510.529 34.8712 511.052 36.9924 510.628 39.6136C510.249 41.8409 509.272 43.7879 507.696 45.4545C506.12 47.1061 504.12 48.3939 501.696 49.3182C499.272 50.2273 496.582 50.6818 493.628 50.6818C488.886 50.6818 485.279 49.7121 482.81 47.7727C480.34 45.8333 479.151 43.2045 479.242 39.8864L488.696 39.3864C488.772 40.8106 489.272 41.8864 490.196 42.6136C491.12 43.3258 492.386 43.6894 493.992 43.7045C495.795 43.7348 497.325 43.3636 498.582 42.5909C499.855 41.803 500.575 40.8485 500.742 39.7273C500.863 38.9394 500.636 38.303 500.06 37.8182C499.499 37.3333 498.469 36.9318 496.969 36.6136L491.151 35.4091C487.848 34.7273 485.476 33.5076 484.037 31.75C482.598 29.9924 482.105 27.7576 482.56 25.0455C482.923 22.8788 483.825 21.0227 485.264 19.4773C486.719 17.9167 488.59 16.7197 490.878 15.8864C493.181 15.053 495.779 14.6364 498.673 14.6364C503.204 14.6364 506.613 15.5682 508.901 17.4318C511.204 19.2955 512.302 21.8333 512.196 25.0455ZM538.081 15.0909L536.876 22.3636H515.831L517.058 15.0909H538.081ZM523.195 6.72727H532.876L527.467 39.2727C527.316 40.1667 527.338 40.8636 527.535 41.3636C527.732 41.8485 528.058 42.1894 528.513 42.3864C528.982 42.5833 529.543 42.6818 530.195 42.6818C530.649 42.6818 531.111 42.6439 531.581 42.5682C532.051 42.4773 532.407 42.4091 532.649 42.3636L533.013 49.5682C532.467 49.7348 531.732 49.9167 530.808 50.1136C529.899 50.3106 528.823 50.4318 527.581 50.4773C525.217 50.5682 523.217 50.2576 521.581 49.5455C519.945 48.8182 518.77 47.7045 518.058 46.2045C517.346 44.7045 517.195 42.8182 517.604 40.5455L523.195 6.72727Z" fill="url(#paint0_linear_1_58)"/>
<defs>
<linearGradient id="paint0_linear_1_58" x1="654.5" y1="-135.5" x2="-296" y2="292.5" gradientUnits="userSpaceOnUse">
<stop offset="0.0209998" stop-opacity="0"/>
<stop offset="0.291" stop-color="#2C5362"/>
<stop offset="0.541" stop-color="#CCB96D"/>
<stop offset="1" stop-opacity="0"/>
</linearGradient>
</defs>
</svg>
